# xmcd CD database file
#
# Track frame offsets:
#	150
#	29680
#	56670
#	76100
#	94400
#	115162
#	137837
#	156865
#	174837
#	207077
#
# Disc length: 3036 seconds
#
# Revision: 0
# Processed by: cddbd v1.5.1PL0 Copyright (c) Steve Scherf et al.
# Submitted via: CDex 1.50
#
DISCID=800bda0a
DTITLE=賈　鵬芳・桑木野宏子 - 紫翠水明/遥かなる二胡のしらべ/
DYEAR=2002
DGENRE=ニュー エイジ (一般)
TTITLE0=上海エトランゼ
TTITLE1=夕日の中の少年
TTITLE2=海の オクターヴ
TTITLE3=雨の日海岸で
TTITLE4=草原の日
TTITLE5=マリヴォンヌの桜
TTITLE6=風に消えたさよなら
TTITLE7=Kinmokusei
TTITLE8=サバンナから丘へ
TTITLE9=霧のDawn
EXTD=YEAR: 2002
EXTT0=
EXTT1=
EXTT2=
EXTT3=
EXTT4=
EXTT5=
EXTT6=
EXTT7=
EXTT8=
EXTT9=
PLAYORDER=
